<svg id="Icon_BIRD_" data-name="Icon (BIRD)" xmlns="http://www.w3.org/2000/svg" viewBox="0 0 166.70429 45.47412"><defs><style>.cls-1{fill:#58a8e1;}.cls-2{fill:#147d93;}.cls-3{fill:#fdad00;}</style></defs><path class="cls-1" d="M206.66491,133.51685a94.97387,94.97387,0,0,0-29.61,29.34,29.48469,29.48469,0,0,1-1.11-16.89,30.10684,30.10684,0,0,1,9-15.05c.41.06.82.11,1.23.16a35.92991,35.92991,0,0,0,12.67-.86h0Z" transform="translate(-60.5606 -117.38276)"/><path class="cls-2" d="M206.62487,127.36689l-7.78,2.85h0a35.92991,35.92991,0,0,1-12.67.86c-.41-.05-.82-.1-1.23-.16a37.94363,37.94363,0,0,1-22.5-12.35c3.48-.36,8.33-.78,14.13-1.02,14.09-.59,17.62.53,19.79,1.47A25.5964,25.5964,0,0,1,206.62487,127.36689Z" transform="translate(-60.5606 -117.38276)"/><polygon class="cls-3" points="166.704 13.074 146.094 16.134 138.284 12.834 146.054 9.984 166.704 13.074"/><path class="cls-3" d="M76.21708,162.85688a9.98446,9.98446,0,0,1-7.4381-2.72978q-2.6996-2.72921-2.6996-7.82824v-16.136H60.5606V130.4449h5.51878V117.38276h6.89819V130.4449h9.11824v5.71794H72.97757V151.579a6.18991,6.18991,0,0,0,1.04965,3.87,3.67553,3.67553,0,0,0,3.08973,1.34922,9.24011,9.24011,0,0,0,2.33964-.32976,9.9812,9.9812,0,0,0,2.33965-.93005l1.55938,5.21921a11.65535,11.65535,0,0,1-3.20932,1.52919A13.158,13.158,0,0,1,76.21708,162.85688Z" transform="translate(-60.5606 -117.38276)"/><path class="cls-3" d="M100.554,162.85688a15.763,15.763,0,0,1-6.21535-1.20145,14.879,14.879,0,0,1-4.93206-3.37065,15.04646,15.04646,0,0,1-3.23872-5.128,18.08269,18.08269,0,0,1-1.13756-6.53481,17.524,17.524,0,0,1,1.13756-6.38959,16.1964,16.1964,0,0,1,3.15173-5.128,14.29756,14.29756,0,0,1,10.70911-4.65946,14.69934,14.69934,0,0,1,5.86516,1.14246A13.50321,13.50321,0,0,1,110.504,134.84a14.58068,14.58068,0,0,1,3.006,5.0123,18.72686,18.72686,0,0,1,1.05058,6.418v1.99221H91.97546a11.70188,11.70188,0,0,0,1.429,4.65946,7.8535,7.8535,0,0,0,7.14957,4.074,8.3826,8.3826,0,0,0,7.47039-4.27939l5.89453,2.28605a11.93522,11.93522,0,0,1-3.06475,4.1909,13.915,13.915,0,0,1-4.66885,2.72511A16.789,16.789,0,0,1,100.554,162.85688Zm-.52529-26.96177a7.094,7.094,0,0,0-3.64765.93825,8.11769,8.11769,0,0,0-2.71343,2.63775,10.60246,10.60246,0,0,0-1.51712,3.98555h15.4062a11.19736,11.19736,0,0,0-1.342-3.98555,7.17726,7.17726,0,0,0-2.59707-2.63775A6.98472,6.98472,0,0,0,100.02875,135.89511Z" transform="translate(-60.5606 -117.38276)"/><path class="cls-3" d="M117.44041,162.84614V130.4449h6.69836v5.686A9.93267,9.93267,0,0,1,127.518,131.943a8.70224,8.70224,0,0,1,5.08477-1.49812,12.58674,12.58674,0,0,1,1.76564.12189,5.62706,5.62706,0,0,1,1.52284.42837l-.79207,6.84685a6.46961,6.46961,0,0,0-1.40025-.33607,11.6494,11.6494,0,0,0-1.46155-.09112,7.096,7.096,0,0,0-5.7236,2.44479,10.17879,10.17879,0,0,0-2.07091,6.7865v16.2Z" transform="translate(-60.5606 -117.38276)"/><path class="cls-3" d="M138.77106,162.84614V130.4449h6.53844v5.23894a10.139,10.139,0,0,1,3.869-3.8237,11.39185,11.39185,0,0,1,5.72912-1.41524,10.71007,10.71007,0,0,1,10.1984,6.44434,16.88634,16.88634,0,0,1,1.43982,7.22657v18.73033h-6.89956V144.89921a9.498,9.498,0,0,0-1.70921-6.02351,5.73218,5.73218,0,0,0-4.76885-2.16715,7.38655,7.38655,0,0,0-3.869,1.02354,7.23308,7.23308,0,0,0-2.66949,2.76986,8.23718,8.23718,0,0,0-.96027,4.03587v18.30832Z" transform="translate(-60.5606 -117.38276)"/><path class="cls-1" d="M75.965,118.58883" transform="translate(-60.5606 -117.38276)"/></svg>